<?xml version="1.0" ?><!-- Uploaded to: SVG Repo, www.svgrepo.com, Generator: SVG Repo Mixer Tools -->
<svg fill="#000000" width="800px" height="800px" viewBox="0 0 64 64" data-name="Layer 1" id="Layer_1" xmlns="http://www.w3.org/2000/svg"><title/><path d="M55.43,55.68H8.57a5.51,5.51,0,0,1-5.5-5.5V13.82a5.51,5.51,0,0,1,5.5-5.5H55.43a5.51,5.51,0,0,1,5.5,5.5V50.18A5.51,5.51,0,0,1,55.43,55.68ZM8.57,11.32a2.5,2.5,0,0,0-2.5,2.5V50.18a2.5,2.5,0,0,0,2.5,2.5H55.43a2.5,2.5,0,0,0,2.5-2.5V13.82a2.5,2.5,0,0,0-2.5-2.5Z"/><path d="M32,27.21a2,2,0,0,1-.42-.05l-17.25-5a1.5,1.5,0,0,1,.84-2.89L32,24.15l16.83-4.88a1.5,1.5,0,0,1,.84,2.89l-17.25,5A2,2,0,0,1,32,27.21Z"/><path d="M39.14,49a1.49,1.49,0,0,1-1.06-.44L34.9,45.34A1.51,1.51,0,0,1,36,42.77H51.82a1.5,1.5,0,0,1,0,3H39.59l.61.62a1.51,1.51,0,0,1,0,2.12A1.53,1.53,0,0,1,39.14,49Z"/><path d="M36,45.77a1.5,1.5,0,0,1-1.06-2.56L38.08,40a1.5,1.5,0,1,1,2.12,2.12L37,45.34A1.48,1.48,0,0,1,36,45.77Z"/></svg>